<?xml version="1.0" standalone="no"?>
<svg viewBox="0 0 200 200" xmlns="http://www.w3.org/2000/svg">
  <path fill="#08BDBA" d="M26.8,-46.5C33.8,-37.2,37.8,-28.2,39.3,-19.5C40.8,-10.9,39.7,-2.7,37.9,5C36.1,12.7,33.6,19.8,29.2,25.7C24.7,31.6,18.4,36.3,11.8,36.6C5.2,37,-1.7,33,-14.7,35.7C-27.7,38.5,-47,47.9,-61.6,45.4C-76.2,42.8,-86.2,28.3,-83.3,15.1C-80.4,1.8,-64.4,-10.2,-55.5,-23.6C-46.6,-37,-44.7,-51.8,-36.7,-60.6C-28.6,-69.4,-14.3,-72,-2.2,-68.6C9.9,-65.2,19.8,-55.8,26.8,-46.5Z" transform="translate(100 100)" />
</svg>
